# xmcd
#
# Track frame offsets:
#	150
#	14281
#	31185
#	43055
#	59482
#	72981
#	93297
#	106355
#	121090
#	136937
#	152964
#	170717
#	188911
#
# Disc length: 2713 seconds
#
# Revision: 0
# Processed by: cddbd v1.5.2PL0 Copyright (c) Steve Scherf et al.
# Submitted via: EasyCDDAExtractor 10.0.3.1
#
DISCID=af0a970d
DTITLE=James Blundell - Ring Around The Moon
DYEAR=2007
DGENRE=Country
TTITLE0=Learning To Roll
TTITLE1=Four Feet Tall
TTITLE2=Drive On
TTITLE3=Ring Around The Moon
TTITLE4=Nature's Gentleman
TTITLE5=Let's All Get Together
TTITLE6=Too Old To Die Young
TTITLE7=The Sound Of Your Smile
TTITLE8=Beautiful Day In New York
TTITLE9=Moderation
TTITLE10=The Poet And The Queen
TTITLE11=Higher Than Heaven
TTITLE12=This Is The Truth
EXTD=
EXTT0=
EXTT1=
EXTT2=
EXTT3=
EXTT4=
EXTT5=
EXTT6=
EXTT7=
EXTT8=
EXTT9=
EXTT10=
EXTT11=
EXTT12=
PLAYORDER=
